<svg id="visual" viewBox="0 0 960 540" width="960" height="540" xmlns="http://www.w3.org/2000/svg" xmlns:xlink="http://www.w3.org/1999/xlink" version="1.1"><rect x="0" y="0" width="960" height="540" fill="#FFE1E0"></rect><path d="M0 139L9.3 132.2C18.7 125.3 37.3 111.7 56.2 110.7C75 109.7 94 121.3 112.8 122.7C131.7 124 150.3 115 169.2 116.8C188 118.7 207 131.3 225.8 131.2C244.7 131 263.3 118 282.2 120.8C301 123.7 320 142.3 338.8 152.5C357.7 162.7 376.3 164.3 395.2 161.7C414 159 433 152 451.8 142.5C470.7 133 489.3 121 508.2 123.2C527 125.3 546 141.7 564.8 143.5C583.7 145.3 602.3 132.7 621.2 132C640 131.3 659 142.7 677.8 140.3C696.7 138 715.3 122 734.2 123.3C753 124.7 772 143.3 790.8 153.8C809.7 164.3 828.3 166.7 847.2 160.5C866 154.3 885 139.7 903.8 130.7C922.7 121.7 941.3 118.3 950.7 116.7L960 115L960 541L950.7 541C941.3 541 922.7 541 903.8 541C885 541 866 541 847.2 541C828.3 541 809.7 541 790.8 541C772 541 753 541 734.2 541C715.3 541 696.7 541 677.8 541C659 541 640 541 621.2 541C602.3 541 583.7 541 564.8 541C546 541 527 541 508.2 541C489.3 541 470.7 541 451.8 541C433 541 414 541 395.2 541C376.3 541 357.7 541 338.8 541C320 541 301 541 282.2 541C263.3 541 244.7 541 225.8 541C207 541 188 541 169.2 541C150.3 541 131.7 541 112.8 541C94 541 75 541 56.2 541C37.3 541 18.7 541 9.3 541L0 541Z" fill="#ffa6a3"></path><path d="M0 169L9.3 174C18.7 179 37.3 189 56.2 187.8C75 186.7 94 174.3 112.8 166.2C131.7 158 150.3 154 169.2 154.5C188 155 207 160 225.8 168.2C244.7 176.3 263.3 187.7 282.2 192.5C301 197.3 320 195.7 338.8 193.7C357.7 191.7 376.3 189.3 395.2 182.8C414 176.3 433 165.7 451.8 160C470.7 154.3 489.3 153.7 508.2 150.2C527 146.7 546 140.3 564.8 141.7C583.7 143 602.3 152 621.2 152.7C640 153.3 659 145.7 677.8 146.2C696.7 146.7 715.3 155.3 734.2 154.7C753 154 772 144 790.8 148.2C809.7 152.3 828.3 170.7 847.2 178.5C866 186.3 885 183.7 903.8 176C922.7 168.3 941.3 155.7 950.7 149.3L960 143L960 541L950.7 541C941.3 541 922.7 541 903.8 541C885 541 866 541 847.2 541C828.3 541 809.7 541 790.8 541C772 541 753 541 734.2 541C715.3 541 696.7 541 677.8 541C659 541 640 541 621.2 541C602.3 541 583.7 541 564.8 541C546 541 527 541 508.2 541C489.3 541 470.7 541 451.8 541C433 541 414 541 395.2 541C376.3 541 357.7 541 338.8 541C320 541 301 541 282.2 541C263.3 541 244.7 541 225.8 541C207 541 188 541 169.2 541C150.3 541 131.7 541 112.8 541C94 541 75 541 56.2 541C37.3 541 18.7 541 9.3 541L0 541Z" fill="#ffa19e"></path><path d="M0 180L9.3 184.5C18.7 189 37.3 198 56.2 196.3C75 194.7 94 182.3 112.8 176.3C131.7 170.3 150.3 170.7 169.2 176.5C188 182.3 207 193.7 225.8 193C244.7 192.3 263.3 179.7 282.2 179C301 178.3 320 189.7 338.8 197.5C357.7 205.3 376.3 209.7 395.2 214.2C414 218.7 433 223.3 451.8 225.3C470.7 227.3 489.3 226.7 508.2 222.3C527 218 546 210 564.8 204C583.7 198 602.3 194 621.2 187.7C640 181.3 659 172.7 677.8 172.7C696.7 172.7 715.3 181.3 734.2 183.5C753 185.7 772 181.3 790.8 179.3C809.7 177.3 828.3 177.7 847.2 185C866 192.3 885 206.7 903.8 213.5C922.7 220.3 941.3 219.7 950.7 219.3L960 219L960 541L950.7 541C941.3 541 922.7 541 903.8 541C885 541 866 541 847.2 541C828.3 541 809.7 541 790.8 541C772 541 753 541 734.2 541C715.3 541 696.7 541 677.8 541C659 541 640 541 621.2 541C602.3 541 583.7 541 564.8 541C546 541 527 541 508.2 541C489.3 541 470.7 541 451.8 541C433 541 414 541 395.2 541C376.3 541 357.7 541 338.8 541C320 541 301 541 282.2 541C263.3 541 244.7 541 225.8 541C207 541 188 541 169.2 541C150.3 541 131.7 541 112.8 541C94 541 75 541 56.2 541C37.3 541 18.7 541 9.3 541L0 541Z" fill="#ff9c98"></path><path d="M0 219L9.3 225C18.7 231 37.3 243 56.2 240.5C75 238 94 221 112.8 213.2C131.7 205.3 150.3 206.7 169.2 213.5C188 220.3 207 232.7 225.8 241C244.7 249.3 263.3 253.7 282.2 247.8C301 242 320 226 338.8 223.8C357.7 221.7 376.3 233.3 395.2 237.5C414 241.7 433 238.3 451.8 238C470.7 237.7 489.3 240.3 508.2 241.3C527 242.3 546 241.7 564.8 238.3C583.7 235 602.3 229 621.2 226.7C640 224.3 659 225.7 677.8 224.5C696.7 223.3 715.3 219.7 734.2 220.7C753 221.7 772 227.3 790.8 225.2C809.7 223 828.3 213 847.2 207.7C866 202.3 885 201.7 903.8 201C922.7 200.3 941.3 199.7 950.7 199.3L960 199L960 541L950.7 541C941.3 541 922.7 541 903.8 541C885 541 866 541 847.2 541C828.3 541 809.7 541 790.8 541C772 541 753 541 734.2 541C715.3 541 696.7 541 677.8 541C659 541 640 541 621.2 541C602.3 541 583.7 541 564.8 541C546 541 527 541 508.2 541C489.3 541 470.7 541 451.8 541C433 541 414 541 395.2 541C376.3 541 357.7 541 338.8 541C320 541 301 541 282.2 541C263.3 541 244.7 541 225.8 541C207 541 188 541 169.2 541C150.3 541 131.7 541 112.8 541C94 541 75 541 56.2 541C37.3 541 18.7 541 9.3 541L0 541Z" fill="#ff9693"></path><path d="M0 269L9.3 267.5C18.7 266 37.3 263 56.2 260.5C75 258 94 256 112.8 256.3C131.7 256.7 150.3 259.3 169.2 256.3C188 253.3 207 244.7 225.8 243.8C244.7 243 263.3 250 282.2 259.7C301 269.3 320 281.7 338.8 281.2C357.7 280.7 376.3 267.3 395.2 264.8C414 262.3 433 270.7 451.8 269.5C470.7 268.3 489.3 257.7 508.2 258.2C527 258.7 546 270.3 564.8 271.3C583.7 272.3 602.3 262.7 621.2 263C640 263.3 659 273.7 677.8 280C696.7 286.3 715.3 288.7 734.2 285.3C753 282 772 273 790.8 271.7C809.7 270.3 828.3 276.7 847.2 278.3C866 280 885 277 903.8 274.7C922.7 272.3 941.3 270.7 950.7 269.8L960 269L960 541L950.7 541C941.3 541 922.7 541 903.8 541C885 541 866 541 847.2 541C828.3 541 809.7 541 790.8 541C772 541 753 541 734.2 541C715.3 541 696.7 541 677.8 541C659 541 640 541 621.2 541C602.3 541 583.7 541 564.8 541C546 541 527 541 508.2 541C489.3 541 470.7 541 451.8 541C433 541 414 541 395.2 541C376.3 541 357.7 541 338.8 541C320 541 301 541 282.2 541C263.3 541 244.7 541 225.8 541C207 541 188 541 169.2 541C150.3 541 131.7 541 112.8 541C94 541 75 541 56.2 541C37.3 541 18.7 541 9.3 541L0 541Z" fill="#ff918d"></path><path d="M0 308L9.3 304.3C18.7 300.7 37.3 293.3 56.2 295.7C75 298 94 310 112.8 315C131.7 320 150.3 318 169.2 311.8C188 305.7 207 295.3 225.8 294C244.7 292.7 263.3 300.3 282.2 307.7C301 315 320 322 338.8 323.5C357.7 325 376.3 321 395.2 316.2C414 311.3 433 305.7 451.8 304.8C470.7 304 489.3 308 508.2 306.2C527 304.3 546 296.7 564.8 295.5C583.7 294.3 602.3 299.7 621.2 297.3C640 295 659 285 677.8 286.2C696.7 287.3 715.3 299.7 734.2 299.3C753 299 772 286 790.8 282.5C809.7 279 828.3 285 847.2 293C866 301 885 311 903.8 316.5C922.7 322 941.3 323 950.7 323.5L960 324L960 541L950.7 541C941.3 541 922.7 541 903.8 541C885 541 866 541 847.2 541C828.3 541 809.7 541 790.8 541C772 541 753 541 734.2 541C715.3 541 696.7 541 677.8 541C659 541 640 541 621.2 541C602.3 541 583.7 541 564.8 541C546 541 527 541 508.2 541C489.3 541 470.7 541 451.8 541C433 541 414 541 395.2 541C376.3 541 357.7 541 338.8 541C320 541 301 541 282.2 541C263.3 541 244.7 541 225.8 541C207 541 188 541 169.2 541C150.3 541 131.7 541 112.8 541C94 541 75 541 56.2 541C37.3 541 18.7 541 9.3 541L0 541Z" fill="#ff8c88"></path><path d="M0 339L9.3 338.3C18.7 337.7 37.3 336.3 56.2 337.5C75 338.7 94 342.3 112.8 340.5C131.7 338.7 150.3 331.3 169.2 324.8C188 318.3 207 312.7 225.8 314.5C244.7 316.3 263.3 325.7 282.2 329.8C301 334 320 333 338.8 334.7C357.7 336.3 376.3 340.7 395.2 341.8C414 343 433 341 451.8 338.7C470.7 336.3 489.3 333.7 508.2 333.8C527 334 546 337 564.8 339C583.7 341 602.3 342 621.2 337.8C640 333.7 659 324.3 677.8 325.5C696.7 326.7 715.3 338.3 734.2 342.7C753 347 772 344 790.8 336.7C809.7 329.3 828.3 317.7 847.2 317.7C866 317.7 885 329.3 903.8 332.8C922.7 336.3 941.3 331.7 950.7 329.3L960 327L960 541L950.7 541C941.3 541 922.7 541 903.8 541C885 541 866 541 847.2 541C828.3 541 809.7 541 790.8 541C772 541 753 541 734.2 541C715.3 541 696.7 541 677.8 541C659 541 640 541 621.2 541C602.3 541 583.7 541 564.8 541C546 541 527 541 508.2 541C489.3 541 470.7 541 451.8 541C433 541 414 541 395.2 541C376.3 541 357.7 541 338.8 541C320 541 301 541 282.2 541C263.3 541 244.7 541 225.8 541C207 541 188 541 169.2 541C150.3 541 131.7 541 112.8 541C94 541 75 541 56.2 541C37.3 541 18.7 541 9.3 541L0 541Z" fill="#ff8682"></path><path d="M0 355L9.3 359.7C18.7 364.3 37.3 373.7 56.2 372.5C75 371.3 94 359.7 112.8 355.3C131.7 351 150.3 354 169.2 357C188 360 207 363 225.8 366.7C244.7 370.3 263.3 374.7 282.2 372C301 369.3 320 359.7 338.8 357.5C357.7 355.3 376.3 360.7 395.2 364.3C414 368 433 370 451.8 373.8C470.7 377.7 489.3 383.3 508.2 381C527 378.7 546 368.3 564.8 361.5C583.7 354.7 602.3 351.3 621.2 356.8C640 362.3 659 376.7 677.8 384C696.7 391.3 715.3 391.7 734.2 390.8C753 390 772 388 790.8 387C809.7 386 828.3 386 847.2 380.2C866 374.3 885 362.7 903.8 356C922.7 349.3 941.3 347.7 950.7 346.8L960 346L960 541L950.7 541C941.3 541 922.7 541 903.8 541C885 541 866 541 847.2 541C828.3 541 809.7 541 790.8 541C772 541 753 541 734.2 541C715.3 541 696.7 541 677.8 541C659 541 640 541 621.2 541C602.3 541 583.7 541 564.8 541C546 541 527 541 508.2 541C489.3 541 470.7 541 451.8 541C433 541 414 541 395.2 541C376.3 541 357.7 541 338.8 541C320 541 301 541 282.2 541C263.3 541 244.7 541 225.8 541C207 541 188 541 169.2 541C150.3 541 131.7 541 112.8 541C94 541 75 541 56.2 541C37.3 541 18.7 541 9.3 541L0 541Z" fill="#ff817d"></path><path d="M0 389L9.3 393.8C18.7 398.7 37.3 408.3 56.2 410.2C75 412 94 406 112.8 400.2C131.7 394.3 150.3 388.7 169.2 385.7C188 382.7 207 382.3 225.8 384.5C244.7 386.7 263.3 391.3 282.2 397.3C301 403.3 320 410.7 338.8 414.8C357.7 419 376.3 420 395.2 418.8C414 417.7 433 414.3 451.8 410C470.7 405.7 489.3 400.3 508.2 395.5C527 390.7 546 386.3 564.8 385.5C583.7 384.7 602.3 387.3 621.2 386.5C640 385.7 659 381.3 677.8 382.2C696.7 383 715.3 389 734.2 394.8C753 400.7 772 406.3 790.8 404.2C809.7 402 828.3 392 847.2 393.8C866 395.7 885 409.3 903.8 415C922.7 420.7 941.3 418.3 950.7 417.2L960 416L960 541L950.7 541C941.3 541 922.7 541 903.8 541C885 541 866 541 847.2 541C828.3 541 809.7 541 790.8 541C772 541 753 541 734.2 541C715.3 541 696.7 541 677.8 541C659 541 640 541 621.2 541C602.3 541 583.7 541 564.8 541C546 541 527 541 508.2 541C489.3 541 470.7 541 451.8 541C433 541 414 541 395.2 541C376.3 541 357.7 541 338.8 541C320 541 301 541 282.2 541C263.3 541 244.7 541 225.8 541C207 541 188 541 169.2 541C150.3 541 131.7 541 112.8 541C94 541 75 541 56.2 541C37.3 541 18.7 541 9.3 541L0 541Z" fill="#ff7c77"></path><path d="M0 449L9.3 445.7C18.7 442.3 37.3 435.7 56.2 434.2C75 432.7 94 436.3 112.8 439.8C131.7 443.3 150.3 446.7 169.2 443.7C188 440.7 207 431.3 225.8 430.3C244.7 429.3 263.3 436.7 282.2 440.7C301 444.7 320 445.3 338.8 443C357.7 440.7 376.3 435.3 395.2 434.2C414 433 433 436 451.8 437.7C470.7 439.3 489.3 439.7 508.2 439.3C527 439 546 438 564.8 440.2C583.7 442.3 602.3 447.7 621.2 447.7C640 447.7 659 442.3 677.8 440.2C696.7 438 715.3 439 734.2 435.8C753 432.7 772 425.3 790.8 426.7C809.7 428 828.3 438 847.2 442.5C866 447 885 446 903.8 445C922.7 444 941.3 443 950.7 442.5L960 442L960 541L950.7 541C941.3 541 922.7 541 903.8 541C885 541 866 541 847.2 541C828.3 541 809.7 541 790.8 541C772 541 753 541 734.2 541C715.3 541 696.7 541 677.8 541C659 541 640 541 621.2 541C602.3 541 583.7 541 564.8 541C546 541 527 541 508.2 541C489.3 541 470.7 541 451.8 541C433 541 414 541 395.2 541C376.3 541 357.7 541 338.8 541C320 541 301 541 282.2 541C263.3 541 244.7 541 225.8 541C207 541 188 541 169.2 541C150.3 541 131.7 541 112.8 541C94 541 75 541 56.2 541C37.3 541 18.7 541 9.3 541L0 541Z" fill="#ff7671"></path><path d="M0 485L9.3 482.5C18.7 480 37.3 475 56.2 475.5C75 476 94 482 112.8 482.3C131.7 482.7 150.3 477.3 169.2 477C188 476.7 207 481.3 225.8 481.8C244.7 482.3 263.3 478.7 282.2 479C301 479.3 320 483.7 338.8 483.5C357.7 483.3 376.3 478.7 395.2 477.8C414 477 433 480 451.8 476C470.7 472 489.3 461 508.2 458.7C527 456.3 546 462.7 564.8 468.8C583.7 475 602.3 481 621.2 479.7C640 478.3 659 469.7 677.8 463.5C696.7 457.3 715.3 453.7 734.2 457.3C753 461 772 472 790.8 476.5C809.7 481 828.3 479 847.2 478.5C866 478 885 479 903.8 476.5C922.7 474 941.3 468 950.7 465L960 462L960 541L950.7 541C941.3 541 922.7 541 903.8 541C885 541 866 541 847.2 541C828.3 541 809.7 541 790.8 541C772 541 753 541 734.2 541C715.3 541 696.7 541 677.8 541C659 541 640 541 621.2 541C602.3 541 583.7 541 564.8 541C546 541 527 541 508.2 541C489.3 541 470.7 541 451.8 541C433 541 414 541 395.2 541C376.3 541 357.7 541 338.8 541C320 541 301 541 282.2 541C263.3 541 244.7 541 225.8 541C207 541 188 541 169.2 541C150.3 541 131.7 541 112.8 541C94 541 75 541 56.2 541C37.3 541 18.7 541 9.3 541L0 541Z" fill="#ff716c"></path><path d="M0 511L9.3 507.7C18.7 504.3 37.3 497.7 56.2 496.7C75 495.7 94 500.3 112.8 505.2C131.7 510 150.3 515 169.2 513C188 511 207 502 225.8 498.3C244.7 494.7 263.3 496.3 282.2 496.3C301 496.3 320 494.7 338.8 492.7C357.7 490.7 376.3 488.3 395.2 487C414 485.7 433 485.3 451.8 486.2C470.7 487 489.3 489 508.2 488.8C527 488.7 546 486.3 564.8 485.2C583.7 484 602.3 484 621.2 486.8C640 489.7 659 495.3 677.8 497.2C696.7 499 715.3 497 734.2 497.8C753 498.7 772 502.3 790.8 502.5C809.7 502.7 828.3 499.3 847.2 496.8C866 494.3 885 492.7 903.8 494.8C922.7 497 941.3 503 950.7 506L960 509L960 541L950.7 541C941.3 541 922.7 541 903.8 541C885 541 866 541 847.2 541C828.3 541 809.7 541 790.8 541C772 541 753 541 734.2 541C715.3 541 696.7 541 677.8 541C659 541 640 541 621.2 541C602.3 541 583.7 541 564.8 541C546 541 527 541 508.2 541C489.3 541 470.7 541 451.8 541C433 541 414 541 395.2 541C376.3 541 357.7 541 338.8 541C320 541 301 541 282.2 541C263.3 541 244.7 541 225.8 541C207 541 188 541 169.2 541C150.3 541 131.7 541 112.8 541C94 541 75 541 56.2 541C37.3 541 18.7 541 9.3 541L0 541Z" fill="#ff6b66"></path></svg>